<?xml version="1.0" encoding="utf-8"?>
<!-- Generator: Adobe Illustrator 24.0.1, SVG Export Plug-In . SVG Version: 6.00 Build 0)  -->
<svg version="1.1" baseProfile="tiny" id="Layer_1" xmlns="http://www.w3.org/2000/svg" xmlns:xlink="http://www.w3.org/1999/xlink"
	 x="0px" y="0px" viewBox="0 0 140 120" xml:space="preserve">
<circle id="Ellipse_58" fill="#D1EDF1" cx="69.8" cy="59" r="43.5"/>
<path id="Union_6" fill="#385E68" d="M73.4,95.2c-0.7-0.6-0.8-1.6-0.3-2.3l1.7-2.3c0.2-0.3,0.5-0.5,0.8-0.6l0.6-0.2
	c2.3-0.6,4.9-1.4,9.5-7.2c0.4-0.5,1-1.6,1.7-2.6H59.5c-1.9,0.1-3.6-1.4-3.7-3.3c0,0,0-0.1,0-0.1V53.4c-0.1-0.2-0.3-0.3-0.5-0.4
	c-0.6-0.3-1.3-0.4-1.9-0.2c-0.3,0.1-0.5,0.3-0.7,0.5c-0.3,1.1-0.3,2.2,0,3.3l0.1,0.7c0.6,4,0.7,8.1,0.1,12.2c-0.3,1.7-0.3,3.4,0,5.2
	c0.4,1.9,1.1,3.7,2,5.3c0.3,0.6,0.4,1.3,0.1,1.9l-2,3.2c-0.5,0.7-1.4,1-2.2,0.5s-1-1.4-0.5-2.2l1.5-2.4c-1-1.8-1.7-3.7-2.1-5.7
	c-0.4-2-0.4-4.1,0-6.1c0.5-3.8,0.5-7.6-0.1-11.4l-0.1-0.5c-0.3-1.6-0.6-3.5,0.2-5.1c0.1-0.2,0.3-0.4,0.4-0.6
	c0.6-0.8,1.4-1.4,2.4-1.7c1.1-0.3,2.2-0.3,3.3,0V25.5c0-2.7,2.2-4.9,4.9-5h26.5c2.2,0,4.2,1.5,4.8,3.7v0.1c0.1,0.4,0.2,0.8,0.2,1.2
	V34c0.4,0.3,0.7,0.8,0.7,1.4v2.8c0,0.6-0.2,1.1-0.7,1.4v6.9l0.4-0.2c1.9-0.8,4.1-0.3,5.4,1.2c2.2-0.7,4.7,0.3,5.7,2.4l5.4,10.6
	c4.1,7.8,3.4,11.2,2.9,14v0.1c-0.1,0.1-0.1,0.2-0.1,0.3l1.5,2.8c0.4,0.7,0.1,1.7-0.6,2.1c-0.8,0.4-1.8,0.1-2.2-0.7l-1.7-3.3
	c-0.2-0.3-0.2-0.6-0.2-1c0.1-0.3,0.1-0.6,0.2-0.9v-0.2c0.4-2.2,1-5-2.6-11.8l-5.4-10.6c-0.2-0.4-0.6-0.7-1.1-0.8l2,3.9
	c0.4,0.8,0.1,1.8-0.7,2.2s-1.8,0.1-2.2-0.7l-3-5.6c-0.4-0.7-1.5-1.3-2.1-1l-0.1,0.1l2.9,5.5c0.3,0.8-0.1,1.8-0.9,2.1
	c-0.7,0.3-1.5,0-2-0.6l-3.7-6.9c-0.2-0.4-0.6-0.7-1.1-0.9c-0.4-0.1-0.7-0.1-1.1,0l4,7.7c0.2,0.4,0.2,0.8,0.1,1.2
	c-0.1,0.4-0.4,0.8-0.8,1c-0.4,0.2-0.8,0.2-1.2,0.1c-0.4-0.1-0.8-0.4-1-0.8l-7.7-15c-0.2-0.3-0.4-0.6-0.8-0.7c-0.3-0.1-0.7-0.1-1,0.1
	L79,42.5c-0.6,0.3-0.9,1.1-0.6,1.7c0,0,0,0,0,0.1l9.9,21.1c0.2,0.4,0.2,0.8,0.1,1.2c-0.1,0.4-0.4,0.7-0.8,0.9
	c-0.2,0.1-0.5,0.2-0.7,0.2c-0.6,0-1.2-0.3-1.5-0.9l-1.7-3.6c-0.2,0.2-0.3,0.5-0.4,0.8c-0.2,1-0.1,2,0.4,2.9l2.1,3.5
	c1.5,2.4,3.4,4.6,5.6,6.3l0.9,0.7c1.5,1,3.2,1.8,5.1,2.2c0.5,0.1,0.9,0.4,1.1,0.8l1.5,3c0.4,0.8,0.1,1.8-0.7,2.2
	c-0.8,0.4-1.8,0.1-2.2-0.7l0,0l-1.2-2.3c-1.7-0.5-3.4-1.2-4.9-2.2c-0.2,0.3-0.4,0.7-0.6,1l-0.1,0.1c-0.6,1.1-1.3,2.1-2.1,3.2
	c-5.3,6.7-8.5,7.6-11.1,8.3h-0.1l-1.4,1.9c-0.3,0.4-0.8,0.7-1.3,0.7C74.1,95.5,73.7,95.4,73.4,95.2z M59.1,76.6
	c0,0.3,0.3,0.3,0.5,0.3H87c-1.5-1.4-2.8-3.1-3.9-4.9L83,71.8l-0.1-0.2H59.1V76.6z M59.1,68.6H81c-0.9-1.7-1.2-3.6-0.7-5.5
	c0.3-1.2,1-2.2,2-3l-6.8-14.5c-1.1-2.1-0.3-4.8,1.9-5.8c0.1,0,0.1-0.1,0.2-0.1l0.7-0.4c1.1-0.6,2.3-0.7,3.5-0.3
	c1.2,0.4,2.1,1.2,2.7,2.3l2.3,4.4c0.7-0.3,1.5-0.4,2.3-0.4v-14H59.1V68.6z M59.1,25.5V28H89v-2.6c0-0.2,0-0.3-0.1-0.4
	c-0.1-0.8-0.8-1.3-1.6-1.3H60.8C59.9,23.8,59.2,24.5,59.1,25.5L59.1,25.5z M71.8,74.3c0-1.2,1-2.2,2.2-2.2s2.2,1,2.2,2.2
	s-1,2.2-2.2,2.2C72.8,76.5,71.8,75.5,71.8,74.3z M72.1,27.5c-0.8,0-1.5-0.7-1.5-1.5c0-0.8,0.7-1.5,1.5-1.5h3.7
	c0.8,0,1.4,0.7,1.4,1.5c0,0.8-0.7,1.5-1.5,1.5H72.1z M80,25.9c0-0.8,0.6-1.4,1.3-1.4c0,0,0,0,0.1,0c0.8,0,1.4,0.6,1.4,1.4
	c0,0.8-0.6,1.4-1.4,1.4C80.7,27.3,80,26.7,80,25.9C80,25.9,80,25.9,80,25.9z"/>
</svg>
