<svg xmlns="http://www.w3.org/2000/svg" width="37.226" height="26.676" viewBox="0 0 37.226 26.676"><defs><style>.a{fill:#fff;}</style></defs><path class="a" d="M19.091,26.67c-.445-.011-.89-.04-1.334-.078-.469-.039-.938-.082-1.4-.148a15.85,15.85,0,0,1-6.6-2.336,9.967,9.967,0,0,1-3.5-3.815,8.826,8.826,0,0,1-.942-4.474,9.816,9.816,0,0,1,1.068-3.931,16.37,16.37,0,0,1,3.38-4.469,20.37,20.37,0,0,1,4.188-3.045c.047-.026.1-.05.173-.088a5.613,5.613,0,0,0,.258,2.667,6.03,6.03,0,0,0,1.455,2.29c-.071.059-.135.112-.2.165a22.609,22.609,0,0,0-2.669,2.482,12.268,12.268,0,0,0-1.754,2.442,6.968,6.968,0,0,0-.749,2.113,5.094,5.094,0,0,0,.978,4A8.165,8.165,0,0,0,13.7,22.483a14.178,14.178,0,0,0,3.615,1.589,17.678,17.678,0,0,0,2.55.55,13.928,13.928,0,0,0,1.4.141c.466.017.932.049,1.4.044.486-.005.973-.035,1.458-.073a25.048,25.048,0,0,0,7.88-2.032,2.567,2.567,0,0,1,.371-.137c-.033.027-.065.056-.1.081a21.438,21.438,0,0,1-7.242,3.363,20.661,20.661,0,0,1-2.275.445c-.558.077-1.119.133-1.681.172q-.745.051-1.49.051Q19.341,26.676,19.091,26.67ZM0,21.877l5.254-1.736.319.647C5.386,20.883.38,21.877,0,21.877ZM11.652,18.3c.068-.027.127-.053.188-.073l5.2-1.717c2.732-.9,5.465-1.8,8.194-2.71a9.31,9.31,0,0,0,3.373-1.958,2.938,2.938,0,0,0,.956-1.655A2.121,2.121,0,0,0,28.6,7.922,4.335,4.335,0,0,0,27.2,7.313c-.045-.012-.089-.024-.134-.037a.276.276,0,0,1-.042-.03,6.309,6.309,0,0,0,.343-1.193,5.62,5.62,0,0,0-.13-2.479,6.021,6.021,0,0,0-.485-1.188c.122.011.218.016.312.028a15.5,15.5,0,0,1,8.516,3.815,6.271,6.271,0,0,1,.931,1.008,3.672,3.672,0,0,1,.676,1.6,3.392,3.392,0,0,1-.391,2.112,5.735,5.735,0,0,1-1.816,1.99,12.264,12.264,0,0,1-2.469,1.309A30.212,30.212,0,0,1,28.686,15.5c-1.263.333-2.541.611-3.82.884q-2.063.441-4.121.894c-1.86.41-3.719.827-5.578,1.239q-1.508.333-3.017.661c-.049.011-.1.017-.155.026A3.445,3.445,0,0,1,11.652,18.3ZM20.7,10.189a5.363,5.363,0,0,1-5.489-5.1A5.365,5.365,0,0,1,20.915,0a5.316,5.316,0,0,1,5.451,5.242,5.384,5.384,0,0,1-5.58,4.947Z" transform="translate(0 0)"/></svg>