<svg xmlns="http://www.w3.org/2000/svg" width="108" height="21.108" viewBox="0 0 108 21.108"><defs><style>.a{fill:#fff;}</style></defs><path class="a" d="M109.017,20.752V.042c.161-.016.306-.042.451-.042,2.579,0,5.159-.01,7.737.026a8.484,8.484,0,0,1,3.31.714,5.564,5.564,0,0,1,3.467,4.939,9.258,9.258,0,0,1-.222,3.252,6.2,6.2,0,0,1-4.706,4.583,12.964,12.964,0,0,1-3.062.354c-.467.014-.935,0-1.458,0-.046.616-.018,1.188-.023,1.759s0,1.123,0,1.684v3.394a46.139,46.139,0,0,1-5.494.046M114.511,9.3a5.02,5.02,0,0,0,1.965-.062,2.526,2.526,0,0,0,1.936-2.883,1.836,1.836,0,0,0-1.489-1.822,9.007,9.007,0,0,0-2.129-.1.25.25,0,0,0-.28.281c0,.091,0,.182,0,.273q0,1.911,0,3.822v.5" transform="translate(-88.637 0)"/><path class="a" d="M417.462,31.914a11.182,11.182,0,0,1-.727,3.833,6.786,6.786,0,0,1-5.267,4.271,9.907,9.907,0,0,1-4.636-.114,7,7,0,0,1-5.14-5.263,10.816,10.816,0,0,1,.076-5.93,6.78,6.78,0,0,1,5.8-5.019,9.787,9.787,0,0,1,4.233.14,7.083,7.083,0,0,1,5.36,5.7c.174.778.2,1.588.3,2.383m-10.6-.294c.053.707.069,1.208.132,1.7a4.81,4.81,0,0,0,.536,1.818,2.026,2.026,0,0,0,2.026,1.027A1.9,1.9,0,0,0,411.307,35a4.57,4.57,0,0,0,.28-.813,10.293,10.293,0,0,0,.138-3.925,6.959,6.959,0,0,0-.434-1.52,1.656,1.656,0,0,0-1.107-1.006,2.156,2.156,0,0,0-2.872,1.324,2.621,2.621,0,0,0-.149.475c-.117.761-.22,1.524-.3,2.087" transform="translate(-326.294 -19.128)"/><path class="a" d="M14.459,35.182c.017.15.037.251.037.351,0,1.047-.007,2.094.007,3.14a.519.519,0,0,1-.359.549,9.877,9.877,0,0,1-3.549.884c-.938.053-1.879.106-2.816.079a8.967,8.967,0,0,1-3.814-.909,6.536,6.536,0,0,1-3.508-4.2,11.335,11.335,0,0,1,.18-6.938,6.511,6.511,0,0,1,5.449-4.446,10.5,10.5,0,0,1,4.944.273,6.036,6.036,0,0,1,4.365,4.99,21.88,21.88,0,0,1,.175,4.084,1.343,1.343,0,0,1-.072.274H14.92q-4.324,0-8.648,0c-.209,0-.417.021-.682.036a4.035,4.035,0,0,0,.03.514A2.914,2.914,0,0,0,8.2,36.251a10.68,10.68,0,0,0,5.3-.7c.308-.116.613-.24.953-.374m-3.881-5.318A2.425,2.425,0,0,0,6.81,27.628a2.54,2.54,0,0,0-1.1,2.235Z" transform="translate(0 -19.121)"/><path class="a" d="M213.989,33.33a4.289,4.289,0,0,0,.035.527,2.932,2.932,0,0,0,2.6,2.374,10.6,10.6,0,0,0,5.043-.612c.395-.139.782-.3,1.209-.462.013.167.029.284.029.4,0,1.016-.008,2.032.007,3.048a.542.542,0,0,1-.362.594,10.033,10.033,0,0,1-3.548.883c-.907.052-1.817.1-2.725.082a9.23,9.23,0,0,1-3.365-.667A6.632,6.632,0,0,1,208.8,34.84a11.473,11.473,0,0,1,.174-6.547,6.53,6.53,0,0,1,5.412-4.614,10.443,10.443,0,0,1,5.032.254,6.056,6.056,0,0,1,4.4,5.11,23.335,23.335,0,0,1,.131,3.858c0,.326-.052.363-.372.381-.136.008-.273,0-.409,0q-4.254,0-8.508,0c-.207,0-.415.026-.668.043m4.946-3.494a2.358,2.358,0,0,0-1.079-2.28,2.479,2.479,0,0,0-2.6.016,2.59,2.59,0,0,0-1.159,2.263Z" transform="translate(-169.445 -19.097)"/><path class="a" d="M510.156,35.033c.2.066.326.1.45.15a15.942,15.942,0,0,0,4.4,1.068,8.411,8.411,0,0,0,1.717-.075.846.846,0,0,0,.839-.65.862.862,0,0,0-.554-.949c-.633-.323-1.285-.61-1.934-.9-.677-.3-1.373-.567-2.036-.9a8.52,8.52,0,0,1-1.266-.8,3.99,3.99,0,0,1-1.592-2.856A5.439,5.439,0,0,1,510.283,27a4.063,4.063,0,0,1,1.967-2.456,6.767,6.767,0,0,1,2.348-.814,13.382,13.382,0,0,1,7.716,1.055c.081.035.155.086.28.156l-1.448,3.449c-.147-.048-.26-.077-.367-.121a15.577,15.577,0,0,0-2.987-.923,3.721,3.721,0,0,0-1.711-.045,1.944,1.944,0,0,0-.344.111.607.607,0,0,0-.227.983,1.677,1.677,0,0,0,.573.43c.773.35,1.564.658,2.337,1.006.7.317,1.415.627,2.085,1.006a4.068,4.068,0,0,1,2.112,2.819,6.426,6.426,0,0,1-.067,2.973,4.285,4.285,0,0,1-2.444,2.83,6.95,6.95,0,0,1-2.575.677c-.936.057-1.878.108-2.814.078a13.608,13.608,0,0,1-4.145-.711c-.41-.145-.415-.142-.416-.574q0-1.751,0-3.5Z" transform="translate(-414.759 -19.151)"/><path class="a" d="M326.666,24.98l-1.446,3.428c-.67-.236-1.273-.485-1.9-.658a17.653,17.653,0,0,0-2.168-.475,3.046,3.046,0,0,0-1.166.1.651.651,0,0,0-.261,1.2,2.293,2.293,0,0,0,.581.35c.777.339,1.57.643,2.341.995a20.455,20.455,0,0,1,2.11,1.057,4.041,4.041,0,0,1,2.026,3.41,7.009,7.009,0,0,1-.161,2.257,4.191,4.191,0,0,1-2,2.6,6.76,6.76,0,0,1-2.971.911,27.964,27.964,0,0,1-2.815.084,13.675,13.675,0,0,1-4.192-.71c-.4-.139-.409-.138-.411-.488,0-1.244,0-2.488,0-3.732a1.722,1.722,0,0,1,.033-.218,3.272,3.272,0,0,1,.346.093,17.162,17.162,0,0,0,3.672,1,6.465,6.465,0,0,0,2.44.034,2.262,2.262,0,0,0,.434-.128.718.718,0,0,0,.241-1.225,2.155,2.155,0,0,0-.631-.433q-1.051-.487-2.123-.927a13.635,13.635,0,0,1-2.436-1.214,4.2,4.2,0,0,1-1.911-2.815,5.718,5.718,0,0,1,0-2.213,4.008,4.008,0,0,1,2.009-2.684,6.23,6.23,0,0,1,2.347-.813,16.4,16.4,0,0,1,2.443-.18,13.823,13.823,0,0,1,5.4,1.272,1.145,1.145,0,0,1,.162.126" transform="translate(-255.46 -19.173)"/></svg>