<?xml version="1.0" encoding="utf-8"?>
<!-- Generator: Adobe Illustrator 24.0.1, SVG Export Plug-In . SVG Version: 6.00 Build 0)  -->
<svg version="1.1" baseProfile="tiny" id="Layer_1" xmlns="http://www.w3.org/2000/svg" xmlns:xlink="http://www.w3.org/1999/xlink"
	 x="0px" y="0px" viewBox="0 0 140 120" xml:space="preserve">
<circle id="Ellipse_57" fill="#D1EDF1" cx="70.1" cy="61.1" r="43.5"/>
<path id="Union_5" fill="#385E68" d="M67.5,88.5c-2.1-0.5-4.1-1.2-6-2c-0.8-0.4-1.3-1.2-1.5-2.1l-0.4-4.7c-1.9-1.1-3.6-2.4-5.2-3.9
	l-4.5,1c-0.9,0.2-1.8-0.1-2.3-0.8c-1.4-1.6-2.6-3.4-3.7-5.2c-0.5-0.8-0.5-1.7-0.1-2.5l2.3-4.1c-0.8-2-1.4-4-1.9-6.1L40,56.3
	c-0.9-0.4-1.5-1.3-1.5-2.3v-6c0-1.1,0.7-2,1.8-2.2l4.2-1.9c0.4-2.1,1.1-4.2,1.9-6.1l-2.3-4.1c-0.5-0.8-0.5-1.7,0-2.5
	c1.1-1.9,2.3-3.6,3.7-5.2c0.6-0.7,1.5-1,2.3-0.8l4.5,1c1.6-1.5,3.3-2.8,5.2-3.9l0.4-4.7c0.1-0.9,0.6-1.7,1.5-2.1c1.9-0.9,4-1.5,6-2
	c0.9-0.2,1.8,0.1,2.3,0.8l3.1,3.7h6.1l3.1-3.7c0.6-0.7,1.5-1,2.3-0.8c2.1,0.5,4.1,1.2,6,2c0.8,0.4,1.4,1.1,1.7,2l0.4,4.7
	c1.9,1.1,3.6,2.4,5.2,3.9l4.5-1c0.9-0.2,1.8,0.1,2.3,0.8c1.4,1.6,2.6,3.4,3.7,5.2c0.5,0.8,0.5,1.7,0,2.5l-2.3,4.1
	c0.8,2,1.5,4,1.9,6.1l4.2,1.9c0.9,0.3,1.4,1.3,1.2,2.2v6c0,1-0.6,1.9-1.5,2.3l-4.2,1.9c-0.4,2.1-1.1,4.2-1.9,6.1l2.3,4.1
	c0.5,0.8,0.5,1.7,0,2.5c-1.1,1.9-2.3,3.6-3.7,5.2c-0.6,0.7-1.5,1-2.3,0.8l-4.5-1c-1.6,1.5-3.3,2.8-5.2,3.9l-0.4,4.7
	c-0.1,0.9-0.6,1.7-1.5,2.1c-1.9,0.9-4,1.5-6,2c-0.2,0.1-0.4,0.1-0.6,0.1c-0.7,0-1.4-0.3-1.9-0.8l-3.1-3.7H73l-3.1,3.7
	c-0.4,0.5-1.1,0.8-1.8,0.9C67.9,88.6,67.7,88.6,67.5,88.5z M80.3,79c0.7,0,1.4,0.3,1.9,0.8l2.9,3.4c0.9-0.2,1.7-0.5,2.5-0.8l0.4-4.5
	c0.1-0.8,0.5-1.6,1.3-2c2.3-1.2,4.4-2.7,6.2-4.6c0.6-0.5,1.4-0.8,2.2-0.6l4.3,1c0.5-0.7,1.1-1.4,1.6-2.2l-2.2-3.9
	c-0.4-0.7-0.5-1.6-0.1-2.3c1.1-2.4,1.9-4.9,2.3-7.4c0.2-0.8,0.8-1.5,1.6-1.9l3.9-1.7v-2.8l-3.9-1.7c-0.8-0.3-1.3-1-1.5-1.8
	c-0.4-2.6-1.2-5.1-2.3-7.4c-0.4-0.7-0.3-1.6,0.1-2.3l2.2-3.9c-0.5-0.7-1-1.5-1.6-2.2l-4.3,1c-0.8,0.2-1.7,0-2.2-0.6
	c-1.9-1.8-4-3.3-6.2-4.6c-0.7-0.4-1.2-1.2-1.3-2l-0.4-4.5c-0.8-0.3-1.7-0.6-2.5-0.8l-2.9,3.4c-0.5,0.5-1.2,0.8-1.9,0.8h-8.3
	c-0.7,0-1.4-0.3-1.9-0.8l-2.9-3.4c-0.9,0.2-1.7,0.5-2.5,0.8l-0.4,4.5c-0.1,0.8-0.5,1.6-1.3,2c-2.3,1.2-4.4,2.7-6.2,4.6
	c-0.6,0.5-1.4,0.8-2.2,0.6l-4.3-1c-0.5,0.7-1.1,1.4-1.6,2.2l2.2,3.9c0.4,0.7,0.5,1.6,0.1,2.3c-1.1,2.4-1.9,4.9-2.3,7.4
	c-0.2,0.8-0.7,1.5-1.5,1.8l-3.9,1.7v2.8l3.9,1.7c0.8,0.4,1.3,1.1,1.4,2c0.4,2.6,1.2,5.1,2.3,7.4c0.4,0.7,0.3,1.6-0.1,2.3l-2.2,3.9
	c0.5,0.7,1,1.5,1.6,2.2l4.3-1c0.8-0.2,1.7,0,2.2,0.6c1.9,1.8,4,3.3,6.2,4.6c0.7,0.4,1.2,1.2,1.3,2l0.4,4.4c0.8,0.3,1.7,0.6,2.5,0.8
	l2.9-3.4c0.5-0.5,1.2-0.8,1.9-0.8L80.3,79z M51.9,51c-0.1-13.5,10.8-24.5,24.3-24.7c13.6,0.2,24.5,11.5,24.2,25.1
	c-0.2,13.3-10.9,24-24.2,24.2C62.7,75.5,51.8,64.5,51.9,51z M56.7,51.1c-0.1,10.8,8.6,19.7,19.5,19.8c10.9-0.2,19.7-9.2,19.5-20.1
	c-0.2-10.7-8.8-19.3-19.5-19.5C65.3,31.4,56.6,40.2,56.7,51.1L56.7,51.1z M80.7,58.2l-6-4.6l-0.2-0.2l-0.1-0.1
	c-0.1-0.1-0.2-0.1-0.2-0.2S74,53.1,74,53c-0.1-0.1-0.1-0.1-0.1-0.2c-0.1-0.1-0.1-0.1-0.1-0.2c-0.1-0.2-0.1-0.2-0.1-0.3V37.5
	c0-1.3,1.1-2.4,2.4-2.4s2.4,1.1,2.4,2.4v13.1l5,3.8c1.1,0.8,1.3,2.3,0.5,3.4c-0.5,0.6-1.2,1-1.9,1C81.6,58.7,81.1,58.5,80.7,58.2z"
	/>
</svg>
