<?xml version="1.0" encoding="utf-8"?>
<!-- Generator: Adobe Illustrator 24.0.1, SVG Export Plug-In . SVG Version: 6.00 Build 0)  -->
<svg version="1.1" baseProfile="tiny" id="Layer_1" xmlns="http://www.w3.org/2000/svg" xmlns:xlink="http://www.w3.org/1999/xlink"
	 x="0px" y="0px" viewBox="0 0 140 120" xml:space="preserve">
<circle id="Ellipse_54" fill="#D1EDF1" cx="70.3" cy="61.6" r="43.5"/>
<path id="Union_1" fill="#385E68" d="M38.8,51.6c0-20.7,16.8-37.5,37.5-37.5s37.5,16.8,37.5,37.5S97,89.1,76.3,89.1
	C55.6,89.1,38.8,72.3,38.8,51.6z M43.8,51.6c0,17.9,14.6,32.5,32.5,32.5s32.5-14.6,32.5-32.5S94.3,19.1,76.3,19.1
	C58.4,19.1,43.8,33.7,43.8,51.6z M69.5,70.5c-1.7-1.2-3-2.8-3.9-4.7c-0.5-1.1-0.1-2.4,1-3c0.1-0.1,0.2-0.1,0.3-0.1l1-0.4
	c1-0.3,2.1,0.1,2.6,1.1c1,2.3,3.3,3.8,5.8,3.7c2.5,0.1,4.8-1.3,5.8-3.6c0.5-1,1.6-1.4,2.6-1.1l1.1,0.3c1.2,0.4,1.8,1.6,1.4,2.8
	c0,0.1-0.1,0.2-0.1,0.3c-1.9,4.2-6.2,6.9-10.8,6.8C73.9,72.6,71.5,71.9,69.5,70.5z M82.8,47c-1.1-0.4-1.7-1.6-1.3-2.8
	c0-0.1,0.1-0.2,0.1-0.2l0.5-1c0.5-1,1.7-1.5,2.7-1.1c1.4,0.5,2.8,0.8,4.3,0.8c1.5,0,2.9-0.3,4.3-0.8c1-0.4,2.2,0.1,2.7,1.1l0.5,1
	c0.5,1,0.1,2.3-0.9,2.9c-0.1,0-0.2,0.1-0.3,0.1c-2,0.8-4.1,1.2-6.3,1.2C87,48.2,84.8,47.7,82.8,47z M57.3,47
	c-1.2-0.4-1.8-1.6-1.4-2.8c0-0.1,0.1-0.2,0.1-0.3l0.5-1c0.5-1,1.7-1.5,2.7-1.1c1.4,0.5,2.8,0.8,4.3,0.8c1.5,0,2.9-0.3,4.3-0.8
	c1-0.4,2.2,0.1,2.7,1.1l0.5,1c0.5,1.1,0.1,2.5-1,3c0,0-0.1,0-0.2,0.1c-2,0.7-4.1,1.1-6.3,1.2C61.4,48.2,59.3,47.8,57.3,47z"/>
</svg>
